# xmcd
#
# Track frame offsets: 
#        150
#        20003
#        37022
#        58569
#        79900
#        101675
#        122233
#        142704
#        163203
#        183904
#        202799
#        223449
#        243305
#        258424
#        276908
#        298549
#        319594
#        340636
#
# Disc length: 4777 seconds
#
# Revision: 27
# Processed by: cddbd v1.5.2PL0 Copyright (c) Steve Scherf et al.
# Submitted via: ExactAudioCopyFreeDBPlugin 1.0
#
DISCID=0c12a712
DTITLE=Whitney Houston - 2007 - The Ultimate Collection
DYEAR=2007
DGENRE=R&B
TTITLE0=I Will Always Love You
TTITLE1=Saving All My Love For You
TTITLE2=Greatest Love Of All
TTITLE3=One Moment In Time
TTITLE4=I Wanna Dance With Somebody
TTITLE5=How Will I Know
TTITLE6=So Emotional
TTITLE7=When You Believe [Duet Mariah Carey]
TTITLE8=Where Do Broken Hearts Go
TTITLE9=I'm Your Baby Tonight
TTITLE10=Didn't We Almost Have It All
TTITLE11=Run To You
TTITLE12=Exhale [Shoop Shoop]
TTITLE13=If I Told You That [Duet George Michael]
TTITLE14=I Have Nothing
TTITLE15=I'm Every Woman
TTITLE16=It's Not Right But It's Okay
TTITLE17=My Love Is Your Love
EXTD=YEAR: 2007
EXTT0=
EXTT1=
EXTT2=
EXTT3=
EXTT4=
EXTT5=
EXTT6=
EXTT7=
EXTT8=
EXTT9=
EXTT10=
EXTT11=
EXTT12=
EXTT13=
EXTT14=
EXTT15=
EXTT16=
EXTT17=
PLAYORDER=
